<?xml version="1.0" encoding="utf-8"?>
<!-- Generator: Adobe Illustrator 19.0.0, SVG Export Plug-In . SVG Version: 6.00 Build 0)  -->
<svg version="1.1" id="图层_1" xmlns="http://www.w3.org/2000/svg" xmlns:xlink="http://www.w3.org/1999/xlink" x="0px" y="0px"
	 viewBox="-677 684.4 62 48.9" style="enable-background:new -677 684.4 62 48.9;" xml:space="preserve">
<style type="text/css">
	.st0{fill:#D1D1D1;stroke:#030000;stroke-width:0.37;stroke-linecap:round;stroke-linejoin:round;}
	.st1{fill:#FFFFFF;}
	.st2{fill:#030000;}
	.st3{fill:#C0BFBF;}
	.st4{fill:#D1D1D1;}
</style>
<title>商城ICON</title>
<rect x="-649.4" y="704.7" class="st0" width="7.2" height="3.6"/>
<circle class="st1" cx="-648.2" cy="706.5" r="0.4"/>
<circle class="st1" cx="-646.7" cy="706.5" r="0.4"/>
<circle class="st1" cx="-645" cy="706.5" r="0.4"/>
<circle class="st1" cx="-643.4" cy="706.5" r="0.4"/>
<path d="M-645.9,709.4h-18.2c-0.1,0-0.2-0.1-0.2-0.2v-3c0-0.1,0.1-0.2,0.2-0.2l11-2.5v-17.7c0-0.1,0.1-0.2,0.2-0.2l0,0h14.2
	c0.1,0,0.2,0.1,0.2,0.2v17.9c0,0.1-0.1,0.2-0.2,0.2s-0.2-0.1-0.2-0.2V686h-13.9v17.7c0,0.1-0.1,0.2-0.2,0.2l-11,2.5v2.8h18
	C-645.9,709.2-645.8,709.3-645.9,709.4C-645.7,709.3-645.8,709.4-645.9,709.4L-645.9,709.4z"/>
<path d="M-627.6,709.4h-18.5c-0.1,0,0.2-0.1,0.2-0.2s-0.2-0.2-0.1-0.2h18.3v-2.8l-11-2.5c-0.1,0-0.2-0.1-0.2-0.2
	c0-0.1,0.1-0.2,0.2-0.2l11.1,2.5c0.1,0,0.2,0.1,0.2,0.2v3C-627.4,709.3-627.5,709.4-627.6,709.4z"/>
<g>
	<path d="M-647.1,698.6L-647.1,698.6C-647.1,698.6-647,698.5-647.1,698.6c0.1-0.1,0.1-0.1,0.1-0.2c0-0.1,0-0.1-0.1-0.2
		c0,0-0.1-0.1-0.2-0.1h-0.4v0.1h0.3c0.1,0,0.1,0,0.1,0.1s0,0.1-0.1,0.1l0,0h-0.3v0.3h0.2v-0.3h0.2l0.1,0.3l0,0
		C-647.2,698.7-647.2,698.7-647.1,698.6l0.2,0.1L-647.1,698.6L-647.1,698.6z"/>
	<path d="M-646.3,698.3c0,0-0.1-0.1-0.2-0.1h-0.3c-0.1,0-0.1,0-0.2,0.1l-0.1,0.1l0,0v0.3l0,0l0,0c0,0.1,0,0.1,0.1,0.2
		c0,0,0.1,0.1,0.2,0.1h0.3c0.1,0,0.1,0,0.2-0.1c0,0,0.1-0.1,0.1-0.2L-646.3,698.3L-646.3,698.3L-646.3,698.3z M-646.4,698.3v0.3
		c0,0.1,0,0.1-0.1,0.1h-0.1c-0.1,0-0.1,0-0.1-0.1v-0.3c0-0.1,0-0.1,0.1-0.1L-646.4,698.3C-646.5,698.3-646.4,698.3-646.4,698.3
		L-646.4,698.3z"/>
	<path d="M-644.2,698.3L-644.2,698.3l-0.3,0.4l-0.2-0.3c0,0,0,0-0.1,0h-0.1v0.7h0.1l0,0v-0.3l0.3,0.3l0.3-0.4v0.4h0.2L-644.2,698.3
		C-644.1,698.3-644.1,698.3-644.2,698.3L-644.2,698.3z"/>
	<path d="M-645.6,698.5c0.1,0,0.1-0.1,0.1-0.2c0-0.1-0.1-0.1-0.1-0.2h-0.1l0,0h-0.1l0,0h-0.3v0.7h0.4l0,0l0,0c0.1,0,0.3-0.1,0.3-0.2
		C-645.5,698.6-645.6,698.5-645.6,698.5z M-645.8,698.4h-0.3v-0.1L-645.8,698.4C-645.8,698.3-645.7,698.3-645.8,698.4
		C-645.7,698.4-645.8,698.4-645.8,698.4z M-646,698.6h0.3c0.1,0,0.1,0.1,0.1,0.1c0,0.1,0,0.1-0.1,0.1h-0.3V698.6z"/>
	<path d="M-645,698.9h0.2l-0.3-0.6l0,0c0,0,0,0-0.1,0l0,0l-0.3,0.7h0.1l0,0l0,0l0,0v-0.1L-645,698.9L-645,698.9z M-645.2,698.4
		l0.1,0.2h-0.2L-645.2,698.4z"/>
</g>
<path class="st2" d="M-648.2,707c-0.3,0-0.5-0.3-0.5-0.5s0.3-0.5,0.5-0.5s0.5,0.3,0.5,0.5S-648,707-648.2,707z M-648.2,706
	c-0.2,0-0.3,0.2-0.3,0.3s0.2,0.3,0.3,0.3s0.3-0.2,0.3-0.3S-648.1,706-648.2,706L-648.2,706z"/>
<path class="st2" d="M-646.7,707c-0.3,0-0.5-0.3-0.5-0.5s0.3-0.5,0.5-0.5c0.3,0,0.5,0.3,0.5,0.5S-646.5,707-646.7,707z M-646.7,706
	c-0.2,0-0.3,0.2-0.3,0.3s0.2,0.3,0.3,0.3c0.2,0,0.3-0.2,0.3-0.3S-646.6,706-646.7,706L-646.7,706z"/>
<path class="st2" d="M-645,707c-0.3,0-0.5-0.3-0.5-0.5s0.3-0.5,0.5-0.5s0.5,0.3,0.5,0.5l0,0C-644.5,706.7-644.8,707-645,707z
	 M-645,706c-0.2,0-0.3,0.2-0.3,0.3s0.2,0.3,0.3,0.3s0.3-0.2,0.3-0.3l0,0C-644.6,706.2-644.8,706-645,706L-645,706z"/>
<path class="st2" d="M-643.4,707c-0.3,0-0.5-0.3-0.5-0.5s0.3-0.5,0.5-0.5c0.3,0,0.5,0.3,0.5,0.5l0,0
	C-642.9,706.7-643.2,707-643.4,707z M-643.4,706c-0.2,0-0.3,0.2-0.3,0.3s0.2,0.3,0.3,0.3s0.3-0.2,0.3-0.3l0,0
	C-643.1,706.2-643.3,706-643.4,706L-643.4,706z"/>
<path d="M-638.7,709.4h-14.2c-0.1,0-0.2-0.1-0.2-0.2v-5.7v-0.1c0,0,0.1-0.1,0.1,0l14.2,0.1c0.1,0,0.2,0.1,0.2,0.2L-638.7,709.4
	C-638.6,709.3-638.7,709.4-638.7,709.4z M-652.8,709.2h14v-5.3l-14-0.1V709.2z"/>
<path class="st2" d="M-635.6,732.1h-20.5c-0.1,0-0.1-0.1-0.1-0.1l-0.1-20.3c0-0.1,0.1-0.1,0.1-0.1l0,0h20.5c0.1,0,0.1,0.1,0.1,0.1
	l0,0V732.1L-635.6,732.1L-635.6,732.1z M-656,731.9h20.3v-20.1H-656V731.9z"/>
<path class="st2" d="M-652.1,713.9c-0.3,0-0.5-0.2-0.5-0.5s0.2-0.5,0.5-0.5s0.5,0.2,0.5,0.5S-651.8,713.9-652.1,713.9z
	 M-652.1,713.1c-0.2,0-0.4,0.2-0.4,0.4s0.2,0.4,0.4,0.4s0.4-0.2,0.4-0.4C-651.8,713.2-651.9,713.1-652.1,713.1z"/>
<path class="st2" d="M-650.5,713.9c-0.3,0-0.5-0.2-0.5-0.5s0.2-0.5,0.5-0.5s0.5,0.2,0.5,0.5S-650.3,713.9-650.5,713.9z
	 M-650.5,713.1c-0.2,0-0.4,0.2-0.4,0.4s0.2,0.4,0.4,0.4s0.4-0.2,0.4-0.4C-650.1,713.2-650.3,713.1-650.5,713.1z"/>
<path class="st2" d="M-649,713.9c-0.3,0-0.5-0.2-0.5-0.5s0.2-0.5,0.5-0.5s0.5,0.2,0.5,0.5S-648.6,713.9-649,713.9z M-649,713.1
	c-0.2,0-0.4,0.2-0.4,0.4s0.2,0.4,0.4,0.4s0.4-0.2,0.4-0.4C-648.6,713.2-648.7,713.1-649,713.1z"/>
<path class="st2" d="M-642.9,713.9c-0.3,0-0.5-0.2-0.5-0.5s0.2-0.5,0.5-0.5s0.5,0.2,0.5,0.5S-642.6,713.9-642.9,713.9z
	 M-642.9,713.1c-0.2,0-0.4,0.2-0.4,0.4s0.2,0.4,0.4,0.4s0.4-0.2,0.4-0.4C-642.5,713.2-642.6,713.1-642.9,713.1z"/>
<path class="st2" d="M-641.3,713.9c-0.3,0-0.5-0.2-0.5-0.5s0.2-0.5,0.5-0.5s0.5,0.2,0.5,0.5S-641,713.9-641.3,713.9z M-641.3,713.1
	c-0.2,0-0.4,0.2-0.4,0.4s0.2,0.4,0.4,0.4s0.4-0.2,0.4-0.4C-640.9,713.2-641.1,713.1-641.3,713.1z"/>
<path class="st2" d="M-639.7,713.9c-0.3,0-0.5-0.2-0.5-0.5s0.2-0.5,0.5-0.5s0.5,0.2,0.5,0.5S-639.4,713.9-639.7,713.9z
	 M-639.7,713.1c-0.2,0-0.4,0.2-0.4,0.4s0.2,0.4,0.4,0.4s0.4-0.2,0.4-0.4C-639.3,713.2-639.5,713.1-639.7,713.1z"/>
<rect x="-647.7" y="713" class="st3" width="3.7" height="1"/>
<path d="M-644.1,714h-3.7c-0.1,0-0.1,0-0.1-0.1v-1c0-0.1,0-0.1,0.1-0.1h3.7c0.1,0,0.1,0,0.1,0.1L-644.1,714
	C-644,714-644.1,714-644.1,714z M-647.7,713.9h3.6V713h-3.6V713.9z"/>
<rect x="-656.2" y="715.2" class="st2" width="20.5" height="0.3"/>
<rect x="-656.2" y="723" class="st2" width="20.5" height="0.3"/>
<path class="st2" d="M-637.8,717.7H-654c-0.1,0-0.1-0.1-0.1-0.1l0,0v-1.2c0-0.1,0.1-0.1,0.1-0.1l0,0h16.2c0.1,0,0.1,0.1,0.1,0.1l0,0
	L-637.8,717.7C-637.6,717.6-637.7,717.7-637.8,717.7L-637.8,717.7z M-653.9,717.5h16v-0.9h-16V717.5z"/>
<rect x="-654" y="717.6" class="st4" width="16.2" height="4.7"/>
<path d="M-637.8,722.3H-654c-0.1,0-0.1-0.1-0.1-0.1l0,0v-4.7c0-0.1,0.1-0.1,0.1-0.1l0,0h16.2c0.1,0,0.1,0.1,0.1,0.1l0,0
	L-637.8,722.3C-637.6,722.3-637.7,722.3-637.8,722.3L-637.8,722.3z M-653.9,722.1h16v-4.5h-16V722.1z"/>
<rect x="-654" y="725.5" class="st4" width="16.2" height="4.7"/>
<path d="M-637.8,730.2H-654c-0.1,0-0.1-0.1-0.1-0.1l0,0v-4.7c0-0.1,0.1-0.1,0.1-0.1l0,0h16.2c0.1,0,0.1,0.1,0.1,0.1l0,0
	L-637.8,730.2C-637.6,730.2-637.7,730.2-637.8,730.2L-637.8,730.2z M-653.9,730h16v-4.5h-16V730z"/>
<path class="st2" d="M-637.8,725.6H-654c-0.1,0-0.1-0.1-0.1-0.1l0,0v-1.2c0-0.1,0.1-0.1,0.1-0.1l0,0h16.2c0.1,0,0.1,0.1,0.1,0.1l0,0
	L-637.8,725.6C-637.6,725.6-637.7,725.6-637.8,725.6L-637.8,725.6z M-653.9,725.4h16v-0.9h-16V725.4z"/>
<rect x="-664.1" y="711.5" class="st4" width="6.2" height="20.6"/>
<rect x="-633.8" y="711.5" class="st4" width="6.2" height="20.6"/>
</svg>
