<?xml version="1.0" encoding="utf-8"?>
<!-- Generator: Adobe Illustrator 19.0.0, SVG Export Plug-In . SVG Version: 6.00 Build 0)  -->
<svg version="1.1" id="图层_1" xmlns="http://www.w3.org/2000/svg" xmlns:xlink="http://www.w3.org/1999/xlink" x="0px" y="0px"
	 viewBox="-677 692.3 62 33" style="enable-background:new -677 692.3 62 33;" xml:space="preserve">
<style type="text/css">
	.st0{fill:#5E5E5E;}
	.st1{fill:#FFFFFF;stroke:#030000;stroke-width:0.48;stroke-linecap:round;stroke-miterlimit:10;}
	.st2{fill:#030000;}
	.st3{fill:none;stroke:#030000;stroke-width:0.3;stroke-linecap:round;stroke-linejoin:round;}
	.st4{fill:#D1D1D1;stroke:#030000;stroke-width:0.2;stroke-linecap:round;stroke-linejoin:round;}
	.st5{fill:#D1D1D1;}
</style>
<title>商城ICON</title>
<g>
	<path class="st0" d="M-639.5,720.1c-0.6,0-1.1-0.5-1.1-1.1l0,0v-1.5c0-0.6,0.5-1.1,1.1-1.1c0.6,0,1.1,0.5,1.1,1.1v1.5
		C-638.4,719.6-638.9,720.1-639.5,720.1z"/>
	<path class="st0" d="M-644.8,720.1c-0.6,0-1.1-0.5-1.1-1.1l0,0v-1.5c0-0.6,0.5-1.1,1.1-1.1c0.6,0,1.1,0.5,1.1,1.1l0,0v1.5
		C-643.7,719.6-644.2,720.1-644.8,720.1z"/>
	<g>
		<path d="M-643.9,713.7L-643.9,713.7C-643.8,713.7-643.8,713.7-643.9,713.7c0.1-0.1,0.2-0.2,0.2-0.2c0-0.1,0-0.1-0.1-0.2
			c-0.1,0-0.1-0.1-0.2-0.1h-0.6v0.1h0.5c0.1,0,0.1,0.1,0.1,0.1c0,0.1,0,0.1-0.1,0.1l0,0h-0.5v0.5h0.2v-0.4h0.2l0.2,0.4l0,0
			c0,0,0,0,0.1,0h0.2L-643.9,713.7L-643.9,713.7z"/>
		<path d="M-642.8,713.3c-0.1,0-0.1-0.1-0.2-0.1h-0.4c-0.1,0-0.1,0-0.2,0.1c0,0-0.1,0.1-0.1,0.2l0,0v0.4l0,0l0,0
			c0,0.1,0,0.1,0.1,0.2c0.1,0,0.1,0.1,0.2,0.1h0.4c0.1,0,0.1,0,0.2-0.1c0,0,0.1-0.1,0.1-0.2v-0.4l0,0
			C-642.7,713.4-642.7,713.4-642.8,713.3z M-643,713.5v0.5c0,0.1,0,0.1-0.1,0.1h-0.2c-0.1,0-0.1,0-0.1-0.1v-0.5c0-0.1,0-0.1,0.1-0.1
			h0.2C-643,713.3-643,713.4-643,713.5z"/>
		<path d="M-639.8,713.2h-0.1l-0.3,0.6l-0.3-0.5c0,0,0,0-0.1,0h-0.1v0.9h0.1l0,0v-0.5l0.3,0.5l0.3-0.6v0.6h0.2v-0.8
			C-639.7,713.3-639.7,713.3-639.8,713.2C-639.7,713.3-639.7,713.2-639.8,713.2z"/>
		<path d="M-641.9,713.7c0.1,0,0.1-0.1,0.1-0.2c0-0.1-0.1-0.2-0.1-0.2h-0.1l0,0h-0.1l0,0h-0.5v0.9h0.6l0,0l0,0
			c0.1,0,0.3-0.1,0.3-0.3C-641.7,713.8-641.8,713.7-641.9,713.7z M-642.1,713.6h-0.3v-0.2h0.3c0.1,0,0.1,0.1,0.1,0.1
			C-642,713.5-642,713.6-642.1,713.6L-642.1,713.6z M-642.4,713.8h0.3c0.1,0,0.1,0.1,0.1,0.1c0,0.1,0,0.1-0.1,0.1h-0.3V713.8z"/>
		<path d="M-641,714.1h0.2l-0.4-0.9l0,0c0,0,0,0-0.1,0h-0.1l-0.4,0.9h0.1l0,0c0,0,0,0,0.1,0l0,0V714h0.4L-641,714.1z M-641.3,713.6
			l0.1,0.3h-0.2L-641.3,713.6z"/>
	</g>
	<path d="M-618.4,722h-47.4c-0.1,0-0.2-0.1-0.2-0.2v-25.2c0-0.1,0.1-0.2,0.2-0.2h47.4c0.1,0,0.2,0.1,0.2,0.2v25.2
		C-618.2,721.9-618.3,722-618.4,722z M-665.6,721.6h46.9v-24.7h-46.9V721.6z"/>
	<path d="M-654.1,711.7c-2.6,0-4.7-2.1-4.7-4.7c0-2.6,2.1-4.7,4.7-4.7s4.7,2.1,4.7,4.7C-649.4,709.6-651.5,711.7-654.1,711.7z
		 M-654.1,702.5c-2.5,0-4.5,2-4.5,4.5s2,4.5,4.5,4.5s4.5-2,4.5-4.5l0,0C-649.7,704.5-651.6,702.5-654.1,702.5z"/>
	<path d="M-648.1,707.1h-4.1c-0.1,0-0.2-0.1-0.2-0.2c0-0.1,0.1-0.2,0.2-0.2h4.1c0.1,0,0.2,0.1,0.2,0.2
		C-647.9,707.1-648,707.1-648.1,707.1L-648.1,707.1z"/>
	<path d="M-656,707.1h-4.1c-0.1,0-0.2-0.1-0.2-0.2c0-0.1,0.1-0.2,0.2-0.2h4.1c0.1,0,0.2,0.1,0.2,0.2
		C-655.8,707.1-655.9,707.1-656,707.1z"/>
	<path d="M-654.1,713.2c-0.1,0-0.2-0.1-0.2-0.2v-4.1c0-0.1,0.1-0.2,0.2-0.2s0.2,0.1,0.2,0.2l0,0v4.1
		C-653.9,713.1-654,713.2-654.1,713.2z"/>
	<path d="M-654.1,705.2c-0.1,0-0.2-0.1-0.2-0.2v-4.1c0-0.1,0.1-0.2,0.2-0.2s0.2,0.1,0.2,0.2l0,0v4.1
		C-653.9,705.2-654,705.2-654.1,705.2z"/>
	<path d="M-654.1,709.9c-1.6,0-2.9-1.3-2.9-2.9c0-1.6,1.3-2.9,2.9-2.9s2.9,1.3,2.9,2.9C-651.2,708.6-652.5,709.9-654.1,709.9z
		 M-654.1,704.3c-1.5,0-2.7,1.2-2.7,2.7s1.2,2.7,2.7,2.7s2.7-1.2,2.7-2.7l0,0C-651.4,705.5-652.6,704.3-654.1,704.3z"/>
	<path d="M-630.2,711.7c-2.6,0-4.7-2.1-4.7-4.7c0-2.6,2.1-4.7,4.7-4.7c2.6,0,4.7,2.1,4.7,4.7C-625.5,709.6-627.6,711.7-630.2,711.7z
		 M-630.2,702.5c-2.5,0-4.5,2-4.5,4.5s2,4.5,4.5,4.5s4.5-2,4.5-4.5S-627.7,702.5-630.2,702.5z"/>
	<path d="M-624.1,707.1h-4.1c-0.1,0-0.2-0.1-0.2-0.2c0-0.1,0.1-0.2,0.2-0.2h4.1c0.1,0,0.2,0.1,0.2,0.2
		C-623.9,707-624,707.1-624.1,707.1L-624.1,707.1L-624.1,707.1z"/>
	<path d="M-632.1,707.1h-4.1c-0.1,0-0.2-0.1-0.2-0.2c0-0.1,0.1-0.2,0.2-0.2l0,0h4.1c0.1,0,0.2,0.1,0.2,0.2
		C-631.9,707.1-632,707.1-632.1,707.1z"/>
	<path d="M-630.2,713.2c-0.1,0-0.2-0.1-0.2-0.2v-4.1c0-0.1,0.1-0.2,0.2-0.2c0.1,0,0.2,0.1,0.2,0.2l0,0v4.1
		C-630,713.1-630.1,713.2-630.2,713.2z"/>
	<path d="M-630.2,705.2c-0.1,0-0.2-0.1-0.2-0.2v-4.1c0-0.1,0.1-0.2,0.2-0.2c0.1,0,0.2,0.1,0.2,0.2v4.1
		C-630,705.2-630.1,705.2-630.2,705.2z"/>
	<path d="M-630.2,709.9c-1.6,0-2.9-1.3-2.9-2.9c0-1.6,1.3-2.9,2.9-2.9c1.6,0,2.9,1.3,2.9,2.9C-627.2,708.6-628.5,709.9-630.2,709.9z
		 M-630.2,704.3c-1.5,0-2.7,1.2-2.7,2.7s1.2,2.7,2.7,2.7s2.7-1.2,2.7-2.7S-628.7,704.3-630.2,704.3z"/>
</g>
<polygon class="st1" points="-638.3,721.8 -671.1,721.8 -673.2,696.5 -636.2,696.5 "/>
<path class="st2" d="M-641.2,706.1c-0.4,0-0.7-0.3-0.7-0.7s0.3-0.7,0.7-0.7c0.4,0,0.7,0.3,0.7,0.7S-640.8,706.1-641.2,706.1z
	 M-641.2,705c-0.3,0-0.5,0.2-0.5,0.5s0.2,0.5,0.5,0.5c0.3,0,0.5-0.2,0.5-0.5S-640.9,705-641.2,705z"/>
<path class="st2" d="M-641.2,708.4c-0.4,0-0.7-0.3-0.7-0.7c0-0.4,0.3-0.7,0.7-0.7c0.4,0,0.7,0.3,0.7,0.7S-640.8,708.4-641.2,708.4z
	 M-641.2,707.3c-0.3,0-0.5,0.2-0.5,0.5s0.2,0.5,0.5,0.5c0.3,0,0.5-0.2,0.5-0.5S-640.9,707.3-641.2,707.3z"/>
<path class="st2" d="M-641.2,710.7c-0.4,0-0.7-0.3-0.7-0.7s0.3-0.7,0.7-0.7c0.4,0,0.7,0.3,0.7,0.7
	C-640.5,710.4-640.8,710.7-641.2,710.7z M-641.2,709.6c-0.3,0-0.5,0.2-0.5,0.5s0.2,0.5,0.5,0.5c0.3,0,0.5-0.2,0.5-0.5
	S-640.9,709.6-641.2,709.6z"/>
<path class="st2" d="M-641.2,713.1c-0.4,0-0.7-0.3-0.7-0.7c0-0.4,0.3-0.7,0.7-0.7c0.4,0,0.7,0.3,0.7,0.7S-640.8,713.1-641.2,713.1z
	 M-641.2,711.9c-0.3,0-0.5,0.2-0.5,0.5s0.2,0.5,0.5,0.5c0.3,0,0.5-0.2,0.5-0.5S-640.9,711.9-641.2,711.9z"/>
<circle class="st3" cx="-654.7" cy="709.2" r="9.7"/>
<circle class="st4" cx="-654.7" cy="709.2" r="8"/>
<path class="st5" d="M-663.1,720.1h-6c-0.4,0-0.6-0.3-0.6-0.6l0,0c0-0.4,0.3-0.6,0.6-0.6h6c0.4,0,0.6,0.3,0.6,0.6l0,0
	C-662.5,719.8-662.8,720.1-663.1,720.1z"/>
<path class="st5" d="M-640.3,720.1h-6c-0.4,0-0.6-0.3-0.6-0.6l0,0c0-0.4,0.3-0.6,0.6-0.6h6c0.4,0,0.6,0.3,0.6,0.6l0,0
	C-639.6,719.8-639.9,720.1-640.3,720.1z"/>
<g>
	<path d="M-661.3,708.2L-661.3,708.2C-661.2,708.2-661.2,708.2-661.3,708.2c0.1-0.1,0.1-0.1,0.1-0.1V708h-0.1h-0.4v0.1h0.3
		C-661.3,708.1-661.3,708.1-661.3,708.2C-661.3,708.2-661.3,708.3-661.3,708.2L-661.3,708.2l-0.4,0.1v0.3h0.2v-0.3L-661.3,708.2v0.3
		l0,0l0,0h0.1L-661.3,708.2L-661.3,708.2z"/>
	<path d="M-660.6,707.9L-660.6,707.9h-0.3h-0.1v0.1l0,0v0.2l0,0l0,0v0.1h0.1h0.2h0.1v-0.1V707.9L-660.6,707.9
		C-660.5,708-660.6,708-660.6,707.9z M-660.7,708v0.3c0,0,0,0.1-0.1,0.1h-0.1c-0.1,0-0.1,0-0.1-0.1V708c0,0,0-0.1,0.1-0.1
		L-660.7,708L-660.7,708z"/>
	<path d="M-658.7,707.9L-658.7,707.9l-0.3,0.4l-0.2-0.3l0,0h-0.1v0.6h0.1l0,0v-0.5l0.2,0.3l0.2-0.4v0.4h0.2L-658.7,707.9
		C-658.6,708-658.6,707.9-658.7,707.9C-658.6,707.9-658.6,707.9-658.7,707.9z"/>
	<path d="M-660,708.2c0.1,0,0.1-0.1,0.1-0.1c0-0.1,0-0.1-0.1-0.1c0,0,0,0-0.1,0l0,0l0,0l0,0h-0.3v0.6h0.4l0,0l0,0
		c0.1,0,0.2,0,0.2-0.2C-659.9,708.3-659.9,708.2-660,708.2z M-660.1,708.1h-0.2V708L-660.1,708.1C-660.1,708-660.1,708-660.1,708.1
		L-660.1,708.1z M-660.3,708.2h0.2c0,0,0.1,0,0.1,0.1c0,0,0,0.1-0.1,0.1h-0.2V708.2z"/>
	<path d="M-659.4,708.5h0.2l-0.2-0.5l0,0l0,0l0,0l-0.3,0.6h0.1l0,0l0,0l0,0v-0.1H-659.4L-659.4,708.5z M-659.6,708.1l0.1,0.2h-0.2
		L-659.6,708.1z"/>
</g>
</svg>
